<?xml version="1.0" encoding="UTF-8"?>
<svg xmlns="http://www.w3.org/2000/svg" xmlns:xlink="http://www.w3.org/1999/xlink" viewBox="0 0 100 100" width="100px" height="100px">
<g id="surface409174">
<path style=" stroke:none;fill-rule:nonzero;fill:rgb(100%,100%,100%);fill-opacity:1;" d="M 6 16 C 4.558594 15.980469 3.214844 16.738281 2.488281 17.984375 C 1.761719 19.230469 1.761719 20.769531 2.488281 22.015625 C 3.214844 23.261719 4.558594 24.019531 6 24 L 94 24 C 95.441406 24.019531 96.785156 23.261719 97.511719 22.015625 C 98.238281 20.769531 98.238281 19.230469 97.511719 17.984375 C 96.785156 16.738281 95.441406 15.980469 94 16 Z M 6 46 C 4.558594 45.980469 3.214844 46.738281 2.488281 47.984375 C 1.761719 49.230469 1.761719 50.769531 2.488281 52.015625 C 3.214844 53.261719 4.558594 54.019531 6 54 L 94 54 C 95.441406 54.019531 96.785156 53.261719 97.511719 52.015625 C 98.238281 50.769531 98.238281 49.230469 97.511719 47.984375 C 96.785156 46.738281 95.441406 45.980469 94 46 Z M 6 76 C 4.558594 75.980469 3.214844 76.738281 2.488281 77.984375 C 1.761719 79.230469 1.761719 80.769531 2.488281 82.015625 C 3.214844 83.261719 4.558594 84.019531 6 84 L 94 84 C 95.441406 84.019531 96.785156 83.261719 97.511719 82.015625 C 98.238281 80.769531 98.238281 79.230469 97.511719 77.984375 C 96.785156 76.738281 95.441406 75.980469 94 76 Z M 6 76 "/>
</g>
</svg>
